# xmcd
#
# Track frame offsets:
#	150
#	30975
#	48817
#	81947
#	106442
#	128142
#	153840
#	190860
#	217750
#	245905
#
# Disc length: 3740 seconds
#
# Revision: 1
# Processed by: cddbd v1.4PL0 Copyright (c) Steve Scherf et al.
# Submitted via: audiograbber 1.82.01
#
DISCID=790e9a0a
DTITLE=Ragheb Alameh - Best Of
DYEAR=1900
DGENRE=
TTITLE0=Hamdilla Al Salama
TTITLE1=Ya Reit
TTITLE2=Ya Lomi
TTITLE3=Dawi El Leil
TTITLE4=El Hdiyye
TTITLE5=Eddam El Nas
TTITLE6=Habibetna Beirut
TTITLE7=Rahal
TTITLE8=Wadana Wadana
TTITLE9=Sabahiyet Had
EXTD=
EXTT0=
EXTT1=
EXTT2=
EXTT3=
EXTT4=
EXTT5=
EXTT6=
EXTT7=
EXTT8=
EXTT9=
PLAYORDER=
